<svg version="1.1" xmlns="http://www.w3.org/2000/svg" xmlns:xlink="http://www.w3.org/1999/xlink" width="48" height="48"><defs><linearGradient x1="16.18391" y1="14.22989" x2="36.41228" y2="38.3663" gradientUnits="userSpaceOnUse" id="color-1"><stop offset="0.34" stop-color="#000000" stop-opacity="0.44"></stop><stop offset="1" stop-color="#000000" stop-opacity="0"></stop></linearGradient><filter id="dropshadow-base"><feColorMatrix type="matrix" values="0 0 0 0 0  0 0 0 0 0  0 0 0 0 0  0 0 0 .8 0"></feColorMatrix> <feOffset dx="0" dy="1"></feOffset> <feGaussianBlur stdDeviation="1"></feGaussianBlur> <feComposite in="SourceGraphic"></feComposite></filter><filter id="dropshadow-banner" x="-10%" y="-10%" width="120%" height="130%"><feColorMatrix type="matrix" values="0 0 0 0 0  0 0 0 0 0  0 0 0 0 0  0 0 0 .4 0"></feColorMatrix> <feOffset dx="0" dy="1"></feOffset> <feGaussianBlur stdDeviation="0.5"></feGaussianBlur> <feComposite in="SourceGraphic"></feComposite></filter></defs><g fill="none" fill-rule="nonzero" stroke="none" stroke-width="none" stroke-linecap="butt" stroke-linejoin="miter" stroke-miterlimit="10" stroke-dasharray="" stroke-dashoffset="0" font-family="none" font-weight="none" font-size="none" text-anchor="none" style="mix-blend-mode: normal"><path d="M2,24c0,-12.15026 9.84974,-22 22,-22c12.15026,0 22,9.84974 22,22c0,12.15026 -9.84974,22 -22,22c-12.15026,0 -22,-9.84974 -22,-22z" id="base 1 5" fill="#4d3aff" stroke-width="1"></path><path d="M23.02299,24v-3.21989h-0.28886v3.04658zM20.78011,33.77011h9.08196c1.0796,0 1.95402,-0.87442 1.95402,-1.95402v-12.99h-6.15093l1.95402,1.95402v7.81609l-2.44253,-1.46552l-2.44253,1.46552l-1.95402,-1.95402zM35.84012,19.39825c0.35356,0.35356 0.57216,0.84206 0.57216,1.38186v15.63217c0,1.0796 -0.87442,1.95402 -1.95402,1.95402h-11.72413c-0.5398,0 -1.0283,-0.21861 -1.38186,-0.57216l-4.59619,-4.59619c0,0 0,0 0,0c-0.35356,-0.35356 -0.57216,-0.84206 -0.57216,-1.38186v-15.63217c0,-1.0796 0.87442,-1.95402 1.95402,-1.95402h11.72413c0.5398,0 1.0283,0.21861 1.38186,0.57216z" fill="url(#color-1)" stroke-width="1"></path><path d="M29.86207,14.22989h-11.72413c-1.0796,0 -1.95402,0.87442 -1.95402,1.95402v15.63217c0,1.0796 0.87442,1.95402 1.95402,1.95402h11.72413c1.0796,0 1.95402,-0.87442 1.95402,-1.95402v-15.63217c0,-1.0796 -0.87442,-1.95402 -1.95402,-1.95402zM18.13793,16.18391h4.88505v7.81609l-2.44253,-1.46552l-2.44253,1.46552z" fill="none" stroke-width="0"></path><path d="M31.81609,16.18391v15.63217c0,1.0796 -0.87442,1.95402 -1.95402,1.95402h-11.72413c-1.0796,0 -1.95402,-0.87442 -1.95402,-1.95402v-15.63217c0,-1.0796 0.87442,-1.95402 1.95402,-1.95402h11.72413c1.0796,0 1.95402,0.87442 1.95402,1.95402zM18.13793,24l2.44253,-1.46552l2.44253,1.46552v-7.81609h-4.88505z" fill="#ffffff" stroke-width="0"></path><path d="M2,24c0,-12.15026 9.84974,-22 22,-22c12.15026,0 22,9.84974 22,22c0,12.15026 -9.84974,22 -22,22c-12.15026,0 -22,-9.84974 -22,-22z" id="base 1 1 1" fill="none" stroke-width="1"></path><g fill="#000000" stroke-width="1" font-family="Roboto, sans-serif" font-weight="400" font-size="14" text-anchor="start"></g><rect x="2" y="2" width="44" height="22" fill="none" stroke-width="1"></rect><path d="M2,24v-22h44v22z" fill="none" stroke-width="1"></path><path d="M2,24v-22h44v22z" fill="none" stroke-width="1"></path><path d="M2,24v-22h44v22z" fill="none" stroke-width="1"></path><path d="M2,24v-22h44v22z" fill="none" stroke-width="1"></path><path d="M24,2c12.15026,0 22,9.84974 22,22h-44c0,-12.15026 9.84974,-22 22,-22z" id="base 1 1 1" fill-opacity="0.1" fill="#000000" stroke-width="1"></path></g></svg>